# xmcd CD database file
#
# Track frame offsets:
#	150
#	1705
#	25283
#	44604
#	59397
#	81405
#	100514
#	123413
#	139550
#	157420
#	174508
#	189195
#	204463
#	219601
#
# Disc length: 2964 seconds
#
# Revision: 0
# Processed by: cddbd v1.5.2PL0 Copyright (c) Steve Scherf et al.
# Submitted via: CDex 1.70beta2
#
DISCID=bc0b920e
DTITLE=Bossa n' Roses - Bossa n' Roses
DYEAR=2006
DGENRE=Jazz
TTITLE0=Intro
TTITLE1=Patience
TTITLE2=Sweet Child 'o Mine
TTITLE3=Paradise City
TTITLE4=November Rain
TTITLE5=You Could Be Mine
TTITLE6=Knockin' On Heaven's Doors
TTITLE7=Since I Don't Have You
TTITLE8=Don't Cry
TTITLE9=Welcome To The Jungle
TTITLE10=It's So Easy
TTITLE11=Used To Love Her
TTITLE12=Live And Let Die
TTITLE13=Outro
EXTD=YEAR: 2006
EXTT0=
EXTT1=
EXTT2=
EXTT3=
EXTT4=
EXTT5=
EXTT6=
EXTT7=
EXTT8=
EXTT9=
EXTT10=
EXTT11=
EXTT12=
EXTT13=
PLAYORDER=
